<svg xmlns="http://www.w3.org/2000/svg" viewBox="0 0 1568.8 357"><path d="M564.9 295.7c-65.9 0-113.5-53.6-113.5-119.5S498.3 53.7 566.9 53.7c30.4 0 52 7.1 70.8 18.8v57.9h56.7V46l-10.9-8.5C652.3 13 604.7 0 564.9 0c-97.2 0-176.2 79-176.2 176.2 0 97.2 79 176.2 176.2 176.2 60.7 0 106.4-25.3 140.1-69.3l-45-34.4c-22.9 29.9-57.5 47-95.1 47zm959.6-3l-2-81.2V13.4h-118.2v56.7h58.5v134.3c0 57.9-44.3 98.8-88.9 98.8-44.6 0-67.9-30.9-67.9-88.8v-201h-110.4v56.7h50.7v154.3c0 78.5 44 132.5 122.6 132.5 45.1 0 79.5-24.9 100-63.6h.9l8.1 54h90.8v-54.7h-44.2zM191.5 257h-1.3L104.9 8.3H0V65h59l101.6 283.5h54v-.1L320.5 65h55.1V8.3h-98.4L191.5 257zm558.3 92.1h58.3v-58.3h-58.3v58.3zm225.4-270h-.7l-3.7-65.7H866.6v51.7h55.5v227.5h-55.5v54.7H1124v-53.7H980.8V156.3c6.5-49.7 43.7-92.2 94.6-92.2h.9l-1 50.8h56.7V12.3h-44.7c-51.4 0-89.5 27.8-112.1 66.8z"/></svg>