<svg width="787" height="155" viewBox="0 0 787 155" xmlns="http://www.w3.org/2000/svg"><title>rates__price--11</title><path d="M9 128.4h32.4V35.7l-28 21.4-12.7-17L49 3.3h18.7v125.1h31.8v23.3H9v-23.3zm118.7 0h32.4V35.7l-28 21.4-12.7-17 48.3-36.9h18.7v125.1h31.8v23.3h-90.5v-23.2zm126.2-51.1c0-12.9 1.3-24.1 4-33.8 2.7-9.7 6.5-17.7 11.4-24.1C274.2 13 280 8.3 286.9 5.1c6.8-3.2 14.4-4.8 22.8-4.8 17.9 0 31.6 6.3 41.3 18.8 9.6 12.5 14.5 31.9 14.5 58.2 0 13-1.3 24.3-4 34s-6.5 17.7-11.4 24.2c-4.9 6.4-10.8 11.2-17.7 14.4-6.9 3.2-14.5 4.8-22.9 4.8-18 0-31.8-6.6-41.3-19.8-9.5-13.3-14.3-32.5-14.3-57.6zm27.6 0c0 2.1 0 4.1.1 6 .1 1.9.2 3.9.3 5.8l51.3-47.3c-4.2-12.2-12.1-18.2-23.8-18.2-9 0-15.9 4.3-20.7 13-4.8 8.8-7.2 22.3-7.2 40.7zm56.4 0c0-2.3 0-4.4-.1-6.5-.1-2-.2-4.1-.3-6L286 112c4.3 12.9 12.3 19.3 23.8 19.3 9 0 15.9-4.3 20.8-12.9 4.8-8.6 7.3-22.3 7.3-41.1zm34.8 0c0-12.9 1.3-24.1 4-33.8 2.7-9.7 6.5-17.7 11.4-24.1C393 13 398.8 8.3 405.7 5.1c6.8-3.2 14.4-4.8 22.8-4.8 17.9 0 31.6 6.3 41.3 18.8 9.6 12.5 14.5 31.9 14.5 58.2 0 13-1.3 24.3-4 34s-6.5 17.7-11.4 24.2c-4.9 6.4-10.8 11.2-17.7 14.4-6.9 3.2-14.5 4.8-22.9 4.8-18 0-31.8-6.6-41.3-19.8-9.6-13.3-14.3-32.5-14.3-57.6zm27.5 0c0 2.1 0 4.1.1 6 .1 1.9.2 3.9.3 5.8l51.3-47.3c-4.2-12.2-12.1-18.2-23.8-18.2-9 0-15.9 4.3-20.7 13-4.8 8.8-7.2 22.3-7.2 40.7zm56.4 0c0-2.3 0-4.4-.1-6.5-.1-2-.2-4.1-.3-6L404.7 112c4.3 12.9 12.3 19.3 23.8 19.3 9 0 15.9-4.3 20.8-12.9 4.9-8.6 7.3-22.3 7.3-41.1zm34.8 0c0-12.9 1.3-24.1 4-33.8 2.7-9.7 6.5-17.7 11.4-24.1 4.9-6.4 10.7-11.1 17.6-14.3 6.8-3.2 14.4-4.8 22.8-4.8 17.9 0 31.6 6.3 41.3 18.8C598.1 31.6 603 51 603 77.3c0 13-1.3 24.3-4 34s-6.5 17.7-11.4 24.2c-4.9 6.4-10.8 11.2-17.7 14.4-6.9 3.2-14.5 4.8-22.9 4.8-18 0-31.8-6.6-41.3-19.8-9.6-13.3-14.3-32.5-14.3-57.6zm27.5 0c0 2.1 0 4.1.1 6 .1 1.9.2 3.9.3 5.8l51.3-47.3c-4.2-12.2-12.1-18.2-23.8-18.2-9 0-15.9 4.3-20.7 13-4.7 8.8-7.2 22.3-7.2 40.7zm56.4 0c0-2.3 0-4.4-.1-6.5-.1-2-.2-4.1-.3-6L523.4 112c4.3 12.9 12.3 19.3 23.8 19.3 9 0 15.9-4.3 20.8-12.9 4.9-8.6 7.3-22.3 7.3-41.1zm192.5 29c0-.4-.1-.9-.1-1.6 0-.6-.1-1.3-.1-2.1s0-1.6-.1-2.4v-2.5c0-2.7.4-4.7 1.1-5.9.8-1.2 1.9-1.8 3.4-1.8.8 0 1.7.3 2.4.8.8.5 1.4 1.4 1.7 2.6h.1c.2-1.5.6-2.5 1.4-3.1.8-.6 1.8-.9 2.9-.9 1.8 0 3.1.8 4 2.3.9 1.5 1.3 4 1.3 7.5v1.7c0 .7 0 1.3-.1 2 0 .7-.1 1.3-.1 1.9 0 .6-.1 1.1-.1 1.5h-17.7zm7.3-8.2c0-1.2-.2-2.1-.6-2.8-.4-.7-.8-1-1.4-1-.6 0-1.1.3-1.4.9-.3.6-.5 1.6-.5 3.1v1.9c0 .7 0 1.2.1 1.4h3.8v-3.5zm7 3.6c0-.2 0-.4.1-.6 0-.3 0-.5.1-.8.1-.3 0-.6 0-.9v-.8c0-1.6-.2-2.8-.5-3.6-.4-.7-.9-1.1-1.7-1.1-.6 0-1.1.3-1.5 1-.4.6-.6 1.7-.6 3.3v3.5h4.1zM767.7 59h4.1c1.5 0 2.6-.2 3.2-.7.7-.5 1-1.4 1-2.8 0-.3 0-.6-.1-1 0-.4-.1-.7-.2-1.1-.1-.4-.2-.7-.3-1-.1-.3-.2-.6-.3-.7h-7.5V47h18v4.7h-7.1c.1.2.3.5.4.9.2.4.3.8.4 1.4.1.5.3 1.1.4 1.7.1.6.1 1.2.1 1.8 0 .9-.1 1.7-.3 2.5-.2.8-.5 1.4-1 2-.5.6-1.1 1-1.9 1.3-.8.3-1.8.5-3 .5h-6.1V59h.2zm1.3-18c-.4-1-.8-2.1-1.1-3.3-.3-1.3-.5-2.8-.5-4.5 0-1.2.2-2.3.5-3.2.3-.9.7-1.6 1.3-2.1.6-.5 1.2-.9 2-1.2.8-.2 1.6-.4 2.6-.4 1.2 0 2.3 0 3.1.1.9.1 1.6.1 2.3.1.5 0 1.1 0 1.7-.1.3 0 .7-.1 1-.1V24h4v6l-2.4.5v.2c.7.5 1.4 1.2 1.9 2 .5.9.8 2.1.8 3.6 0 1.8-.5 3.2-1.4 4.3-1 1-2.2 1.6-3.8 1.6-1 0-1.9-.2-2.6-.6-.7-.4-1.3-.9-1.8-1.6-.5-.7-.8-1.5-1-2.5-.2-1-.3-2.1-.3-3.3 0-.4 0-.9.1-1.4 0-.5.1-1.1.1-1.8-.2 0-.5-.1-.7-.1h-.7c-.9 0-1.6.3-2 .8-.4.5-.6 1.3-.6 2.3 0 1.2.2 2.3.5 3.3s.6 1.8.9 2.5L769 41zm13.2-6.2c0-1.1-.2-2-.6-2.6-.4-.6-.9-1-1.3-1.2H778c0 .2-.1.6-.2 1.1-.1.5-.1 1-.1 1.5s0 .9.1 1.4c.1.5.2.9.4 1.2.2.4.4.6.7.9.3.2.6.3 1 .3.7 0 1.2-.2 1.6-.6.5-.4.7-1.1.7-2zM784 2.9c.7 1 1.3 2.1 1.7 3.5.4 1.3.6 2.7.6 4.1 0 1.6-.2 2.9-.7 4.2-.5 1.2-1.1 2.2-1.9 3.1-.8.8-1.8 1.5-3 1.9-1.2.4-2.5.6-3.9.6-1.5 0-2.9-.3-4-.8-1.2-.5-2.2-1.2-3-2.1-.8-.9-1.4-2-1.9-3.2-.4-1.2-.6-2.6-.6-4 0-1.3.2-2.6.5-3.8.3-1.2.6-2.1.9-2.7h6.3v4h-3.3c-.2.7-.3 1.5-.3 2.2 0 .7.1 1.3.3 2 .2.7.5 1.2 1 1.8.4.5 1 .9 1.7 1.3s1.5.5 2.4.5c.8 0 1.5-.1 2.1-.4.6-.3 1.2-.6 1.7-1.1.5-.5.9-1.1 1.1-1.8.3-.7.4-1.5.4-2.4 0-1.4-.2-2.5-.6-3.4-.4-.9-.7-1.5-1-2l3.5-1.5zM633.7 74.8h16.7V5.1c5.9-1.1 12.1-2 18.4-2.6 6.4-.6 13.1-1 20.1-1 7.3 0 14.4.6 21.2 1.9 6.8 1.3 12.7 3.6 17.8 7 5.1 3.4 9.1 8.1 12.2 14 3 5.9 4.6 13.6 4.6 22.9 0 8.6-1.5 15.9-4.5 21.8s-6.9 10.8-11.9 14.5c-4.9 3.7-10.6 6.4-17 8.1-6.4 1.6-13 2.4-19.9 2.4H677v12.3h33.9v19.3H677V152h-26.7v-26.3h-16.7v-19.3h16.7V94.1h-16.7V74.8h.1zm43.5-.6h11c3.8 0 7.5-.5 10.9-1.4 3.5-.9 6.5-2.4 9-4.3 2.5-2 4.6-4.6 6-8 1.5-3.3 2.2-7.3 2.2-12 0-8.6-2.3-14.7-7-18.3-4.7-3.6-10.7-5.4-18-5.4-2.8 0-5.5.1-8.1.3-2.5.2-4.6.5-6.1.7v48.4h.1z" fill="#FF5400" fill-rule="evenodd"/></svg>