<?xml version="1.0" encoding="UTF-8"?> <svg xmlns="http://www.w3.org/2000/svg" width="320" height="240" viewBox="0 0 320 240" fill="none"> <path d="M0 0V240L80 160L120 200L320 0H0Z" fill="#0080FF"></path> <path d="M24 57.9246L37.113 28.5043H43.8377L56.9928 57.9246H49.8478L39.0884 31.9507H41.7783L30.9768 57.9246H24ZM30.5565 51.6203L32.3638 46.4507H47.4942L49.3435 51.6203H30.5565Z" fill="white"></path> <path d="M72.948 58.2609C71.0427 58.2609 69.3756 57.8406 67.9466 57C66.5176 56.1594 65.3968 54.8845 64.5843 53.1754C63.7997 51.4382 63.4074 49.2527 63.4074 46.6188C63.4074 43.957 63.7857 41.7715 64.5422 40.0623C65.2987 38.3531 66.3915 37.0783 67.8205 36.2377C69.2495 35.3971 70.9586 34.9768 72.948 34.9768C75.0775 34.9768 76.9828 35.4671 78.664 36.4478C80.3731 37.4005 81.7181 38.7454 82.6988 40.4826C83.7074 42.2198 84.2118 44.2652 84.2118 46.6188C84.2118 49.0005 83.7074 51.0599 82.6988 52.7971C81.7181 54.5343 80.3731 55.8792 78.664 56.8319C76.9828 57.7845 75.0775 58.2609 72.948 58.2609ZM59.5828 66.0783V35.313H65.8451V39.9362L65.719 46.6609L66.1393 53.3435V66.0783H59.5828ZM71.8132 52.8812C72.906 52.8812 73.8727 52.629 74.7132 52.1246C75.5818 51.6203 76.2683 50.9058 76.7727 49.9812C77.305 49.0285 77.5712 47.9077 77.5712 46.6188C77.5712 45.3019 77.305 44.1812 76.7727 43.2565C76.2683 42.3319 75.5818 41.6174 74.7132 41.113C73.8727 40.6087 72.906 40.3565 71.8132 40.3565C70.7205 40.3565 69.7398 40.6087 68.8712 41.113C68.0026 41.6174 67.3161 42.3319 66.8118 43.2565C66.3074 44.1812 66.0553 45.3019 66.0553 46.6188C66.0553 47.9077 66.3074 49.0285 66.8118 49.9812C67.3161 50.9058 68.0026 51.6203 68.8712 52.1246C69.7398 52.629 70.7205 52.8812 71.8132 52.8812Z" fill="white"></path> <path d="M101.966 58.2609C100.061 58.2609 98.3936 57.8406 96.9647 57C95.5357 56.1594 94.4149 54.8845 93.6023 53.1754C92.8178 51.4382 92.4255 49.2527 92.4255 46.6188C92.4255 43.957 92.8038 41.7715 93.5603 40.0623C94.3168 38.3531 95.4096 37.0783 96.8386 36.2377C98.2675 35.3971 99.9767 34.9768 101.966 34.9768C104.096 34.9768 106.001 35.4671 107.682 36.4478C109.391 37.4005 110.736 38.7454 111.717 40.4826C112.726 42.2198 113.23 44.2652 113.23 46.6188C113.23 49.0005 112.726 51.0599 111.717 52.7971C110.736 54.5343 109.391 55.8792 107.682 56.8319C106.001 57.7845 104.096 58.2609 101.966 58.2609ZM88.6009 66.0783V35.313H94.8632V39.9362L94.7371 46.6609L95.1574 53.3435V66.0783H88.6009ZM100.831 52.8812C101.924 52.8812 102.891 52.629 103.731 52.1246C104.6 51.6203 105.286 50.9058 105.791 49.9812C106.323 49.0285 106.589 47.9077 106.589 46.6188C106.589 45.3019 106.323 44.1812 105.791 43.2565C105.286 42.3319 104.6 41.6174 103.731 41.113C102.891 40.6087 101.924 40.3565 100.831 40.3565C99.7386 40.3565 98.7579 40.6087 97.8893 41.113C97.0207 41.6174 96.3342 42.3319 95.8299 43.2565C95.3255 44.1812 95.0733 45.3019 95.0733 46.6188C95.0733 47.9077 95.3255 49.0285 95.8299 49.9812C96.3342 50.9058 97.0207 51.6203 97.8893 52.1246C98.7579 52.629 99.7386 52.8812 100.831 52.8812Z" fill="white"></path> <path d="M128.679 58.429C126.325 58.429 124.07 58.1208 121.912 57.5044C119.755 56.8599 118.017 56.0333 116.701 55.0246L119.012 49.8971C120.273 50.7937 121.758 51.5362 123.467 52.1246C125.204 52.685 126.956 52.9652 128.721 52.9652C130.066 52.9652 131.144 52.8391 131.957 52.587C132.798 52.3068 133.414 51.9285 133.806 51.4522C134.199 50.9758 134.395 50.4295 134.395 49.813C134.395 49.0285 134.086 48.4121 133.47 47.9638C132.854 47.4874 132.041 47.1092 131.032 46.829C130.024 46.5208 128.903 46.2406 127.67 45.9884C126.465 45.7082 125.246 45.372 124.014 44.9797C122.809 44.5874 121.702 44.0831 120.693 43.4667C119.685 42.8502 118.858 42.0377 118.214 41.029C117.597 40.0203 117.289 38.7314 117.289 37.1623C117.289 35.4812 117.737 33.9541 118.634 32.5812C119.558 31.1802 120.931 30.0734 122.753 29.2609C124.602 28.4203 126.914 28 129.687 28C131.537 28 133.358 28.2242 135.151 28.6725C136.944 29.0928 138.528 29.7372 139.901 30.6058L137.799 35.7754C136.426 34.9908 135.053 34.4164 133.68 34.0522C132.307 33.6599 130.962 33.4638 129.645 33.4638C128.329 33.4638 127.25 33.6179 126.409 33.9261C125.569 34.2343 124.966 34.6406 124.602 35.1449C124.238 35.6213 124.056 36.1816 124.056 36.8261C124.056 37.5826 124.364 38.199 124.98 38.6754C125.597 39.1237 126.409 39.4879 127.418 39.7681C128.427 40.0483 129.533 40.3285 130.738 40.6087C131.971 40.8889 133.19 41.2111 134.395 41.5754C135.628 41.9396 136.748 42.43 137.757 43.0464C138.766 43.6628 139.578 44.4754 140.195 45.4841C140.839 46.4928 141.161 47.7676 141.161 49.3087C141.161 50.9618 140.699 52.4749 139.774 53.8478C138.85 55.2208 137.463 56.3275 135.614 57.1681C133.792 58.0087 131.481 58.429 128.679 58.429Z" fill="white"></path> <path d="M157.504 58.2609C154.926 58.2609 152.657 57.7565 150.695 56.7478C148.762 55.7391 147.263 54.3662 146.198 52.629C145.134 50.8638 144.601 48.8604 144.601 46.6188C144.601 44.3493 145.12 42.3459 146.156 40.6087C147.221 38.8435 148.664 37.4705 150.485 36.4899C152.306 35.4812 154.366 34.9768 156.663 34.9768C158.877 34.9768 160.866 35.4531 162.632 36.4058C164.425 37.3304 165.84 38.6754 166.877 40.4406C167.913 42.1778 168.432 44.2652 168.432 46.7029C168.432 46.9551 168.418 47.2493 168.39 47.5855C168.362 47.8937 168.333 48.1879 168.305 48.4681H149.939V44.6435H164.859L162.337 45.7783C162.337 44.6014 162.099 43.5787 161.623 42.7101C161.147 41.8415 160.488 41.1691 159.648 40.6928C158.807 40.1884 157.826 39.9362 156.706 39.9362C155.585 39.9362 154.59 40.1884 153.721 40.6928C152.881 41.1691 152.222 41.8556 151.746 42.7522C151.27 43.6208 151.032 44.6575 151.032 45.8623V46.871C151.032 48.1039 151.298 49.1966 151.83 50.1493C152.391 51.0739 153.161 51.7884 154.142 52.2928C155.15 52.7691 156.327 53.0072 157.672 53.0072C158.877 53.0072 159.928 52.8251 160.824 52.4609C161.749 52.0966 162.59 51.5502 163.346 50.8217L166.834 54.6043C165.798 55.7812 164.495 56.6918 162.926 57.3362C161.357 57.9527 159.549 58.2609 157.504 58.2609Z" fill="white"></path> <path d="M183.724 58.2609C181.287 58.2609 179.115 57.7705 177.21 56.7899C175.304 55.7812 173.805 54.3942 172.713 52.629C171.648 50.8638 171.116 48.8604 171.116 46.6188C171.116 44.3493 171.648 42.3459 172.713 40.6087C173.805 38.8435 175.304 37.4705 177.21 36.4899C179.115 35.4812 181.287 34.9768 183.724 34.9768C186.106 34.9768 188.179 35.4812 189.945 36.4899C191.71 37.4705 193.013 38.8855 193.853 40.7348L188.768 43.4667C188.179 42.4019 187.437 41.6174 186.54 41.113C185.672 40.6087 184.719 40.3565 183.682 40.3565C182.561 40.3565 181.553 40.6087 180.656 41.113C179.759 41.6174 179.045 42.3319 178.513 43.2565C178.008 44.1812 177.756 45.3019 177.756 46.6188C177.756 47.9358 178.008 49.0565 178.513 49.9812C179.045 50.9058 179.759 51.6203 180.656 52.1246C181.553 52.629 182.561 52.8812 183.682 52.8812C184.719 52.8812 185.672 52.643 186.54 52.1667C187.437 51.6623 188.179 50.8638 188.768 49.771L193.853 52.5449C193.013 54.3662 191.71 55.7812 189.945 56.7899C188.179 57.7705 186.106 58.2609 183.724 58.2609Z" fill="white"></path> <path d="M26.438 107.664V78.2435H32.0699L44.5945 99.0058H41.6105L53.925 78.2435H59.5148L59.5989 107.664H53.2105L53.1685 88.0362H54.3453L44.5105 104.554H41.4424L31.3974 88.0362H32.8264V107.664H26.438Z" fill="white"></path> <path d="M77.3384 108C74.7606 108 72.4911 107.496 70.5297 106.487C68.5964 105.478 67.0973 104.105 66.0326 102.368C64.9679 100.603 64.4355 98.5995 64.4355 96.358C64.4355 94.0884 64.9539 92.085 65.9906 90.3478C67.0553 88.5826 68.4983 87.2097 70.3196 86.229C72.1408 85.2203 74.2002 84.7159 76.4978 84.7159C78.7114 84.7159 80.7007 85.1923 82.466 86.1449C84.2592 87.0696 85.6742 88.4145 86.7109 90.1797C87.7476 91.9169 88.266 94.0043 88.266 96.442C88.266 96.6942 88.2519 96.9884 88.2239 97.3246C88.1959 97.6329 88.1679 97.9271 88.1399 98.2073H69.7732V94.3826H84.6935L82.1717 95.5174C82.1717 94.3406 81.9336 93.3179 81.4573 92.4493C80.9809 91.5807 80.3225 90.9082 79.4819 90.4319C78.6413 89.9275 77.6606 89.6754 76.5399 89.6754C75.4191 89.6754 74.4244 89.9275 73.5558 90.4319C72.7152 90.9082 72.0568 91.5947 71.5804 92.4913C71.1041 93.3599 70.8659 94.3966 70.8659 95.6015V96.6101C70.8659 97.843 71.1321 98.9358 71.6645 99.8884C72.2249 100.813 72.9954 101.528 73.9761 102.032C74.9848 102.508 76.1616 102.746 77.5065 102.746C78.7114 102.746 79.7621 102.564 80.6587 102.2C81.5833 101.836 82.4239 101.289 83.1804 100.561L86.6689 104.343C85.6321 105.52 84.3292 106.431 82.7602 107.075C81.1911 107.692 79.3838 108 77.3384 108Z" fill="white"></path> <path d="M106.375 84.7159C108.168 84.7159 109.765 85.0802 111.166 85.8087C112.595 86.5092 113.716 87.6019 114.528 89.087C115.341 90.544 115.747 92.4213 115.747 94.7188V107.664H109.19V95.7275C109.19 93.9063 108.784 92.5613 107.972 91.6927C107.187 90.8242 106.066 90.3899 104.609 90.3899C103.573 90.3899 102.634 90.614 101.793 91.0623C100.981 91.4826 100.336 92.1411 99.8601 93.0377C99.4117 93.9343 99.1876 95.0831 99.1876 96.4841V107.664H92.6311V85.0522H98.8934V91.3145L97.7166 89.4232C98.5291 87.9101 99.6919 86.7473 101.205 85.9348C102.718 85.1222 104.441 84.7159 106.375 84.7159Z" fill="white"></path> <path d="M130.937 108C128.275 108 126.201 107.328 124.716 105.983C123.231 104.61 122.489 102.578 122.489 99.8884V80.0507H129.045V99.8044C129.045 100.757 129.297 101.5 129.802 102.032C130.306 102.536 130.993 102.788 131.861 102.788C132.898 102.788 133.781 102.508 134.509 101.948L136.274 106.571C135.602 107.047 134.789 107.412 133.837 107.664C132.912 107.888 131.945 108 130.937 108ZM119 90.6V85.5565H134.677V90.6H119Z" fill="white"></path> <path d="M150.016 108C147.607 108 145.463 107.496 143.586 106.487C141.737 105.478 140.266 104.105 139.173 102.368C138.108 100.603 137.576 98.5995 137.576 96.358C137.576 94.0884 138.108 92.085 139.173 90.3478C140.266 88.5826 141.737 87.2097 143.586 86.229C145.463 85.2203 147.607 84.7159 150.016 84.7159C152.398 84.7159 154.528 85.2203 156.405 86.229C158.282 87.2097 159.753 88.5686 160.818 90.3058C161.883 92.043 162.415 94.0604 162.415 96.358C162.415 98.5995 161.883 100.603 160.818 102.368C159.753 104.105 158.282 105.478 156.405 106.487C154.528 107.496 152.398 108 150.016 108ZM150.016 102.62C151.109 102.62 152.09 102.368 152.958 101.864C153.827 101.359 154.514 100.645 155.018 99.7203C155.522 98.7676 155.774 97.6469 155.774 96.358C155.774 95.0411 155.522 93.9203 155.018 92.9957C154.514 92.071 153.827 91.3565 152.958 90.8522C152.09 90.3478 151.109 90.0956 150.016 90.0956C148.924 90.0956 147.943 90.3478 147.074 90.8522C146.206 91.3565 145.505 92.071 144.973 92.9957C144.469 93.9203 144.216 95.0411 144.216 96.358C144.216 97.6469 144.469 98.7676 144.973 99.7203C145.505 100.645 146.206 101.359 147.074 101.864C147.943 102.368 148.924 102.62 150.016 102.62Z" fill="white"></path> <path d="M166.797 107.664V85.0522H173.06V91.4406L172.177 89.5913C172.85 87.9942 173.928 86.7894 175.413 85.9768C176.898 85.1362 178.706 84.7159 180.835 84.7159V90.7681C180.555 90.7401 180.303 90.7261 180.079 90.7261C179.854 90.6981 179.616 90.6841 179.364 90.6841C177.571 90.6841 176.114 91.2024 174.993 92.2391C173.9 93.2478 173.354 94.8309 173.354 96.9884V107.664H166.797Z" fill="white"></path> </svg> 