<svg width="320" height="288" viewBox="0 0 320 288" fill="none" xmlns="http://www.w3.org/2000/svg">
<path d="M0 48V288L80 208L120 248L320 48H0Z" fill="#0080FF"/>
<path d="M24 105.925L37.113 76.5043H43.8377L56.9928 105.925H49.8478L39.0884 79.9507H41.7783L30.9768 105.925H24ZM30.5565 99.6203L32.3638 94.4507H47.4942L49.3435 99.6203H30.5565Z" fill="white"/>
<path d="M72.948 106.261C71.0427 106.261 69.3756 105.841 67.9466 105C66.5176 104.159 65.3968 102.885 64.5843 101.175C63.7997 99.4382 63.4074 97.2527 63.4074 94.6188C63.4074 91.957 63.7857 89.7715 64.5422 88.0623C65.2987 86.3531 66.3915 85.0783 67.8205 84.2377C69.2495 83.3971 70.9586 82.9768 72.948 82.9768C75.0775 82.9768 76.9828 83.4671 78.664 84.4478C80.3731 85.4005 81.7181 86.7454 82.6988 88.4826C83.7074 90.2198 84.2118 92.2652 84.2118 94.6188C84.2118 97.0005 83.7074 99.0599 82.6988 100.797C81.7181 102.534 80.3731 103.879 78.664 104.832C76.9828 105.785 75.0775 106.261 72.948 106.261ZM59.5828 114.078V83.313H65.8451V87.9362L65.719 94.6609L66.1393 101.344V114.078H59.5828ZM71.8132 100.881C72.906 100.881 73.8727 100.629 74.7132 100.125C75.5818 99.6203 76.2683 98.9058 76.7727 97.9812C77.305 97.0285 77.5712 95.9077 77.5712 94.6188C77.5712 93.3019 77.305 92.1812 76.7727 91.2565C76.2683 90.3319 75.5818 89.6174 74.7132 89.113C73.8727 88.6087 72.906 88.3565 71.8132 88.3565C70.7205 88.3565 69.7398 88.6087 68.8712 89.113C68.0026 89.6174 67.3161 90.3319 66.8118 91.2565C66.3074 92.1812 66.0553 93.3019 66.0553 94.6188C66.0553 95.9077 66.3074 97.0285 66.8118 97.9812C67.3161 98.9058 68.0026 99.6203 68.8712 100.125C69.7398 100.629 70.7205 100.881 71.8132 100.881Z" fill="white"/>
<path d="M101.966 106.261C100.061 106.261 98.3936 105.841 96.9647 105C95.5357 104.159 94.4149 102.885 93.6023 101.175C92.8178 99.4382 92.4255 97.2527 92.4255 94.6188C92.4255 91.957 92.8038 89.7715 93.5603 88.0623C94.3168 86.3531 95.4096 85.0783 96.8386 84.2377C98.2675 83.3971 99.9767 82.9768 101.966 82.9768C104.096 82.9768 106.001 83.4671 107.682 84.4478C109.391 85.4005 110.736 86.7454 111.717 88.4826C112.726 90.2198 113.23 92.2652 113.23 94.6188C113.23 97.0005 112.726 99.0599 111.717 100.797C110.736 102.534 109.391 103.879 107.682 104.832C106.001 105.785 104.096 106.261 101.966 106.261ZM88.6009 114.078V83.313H94.8632V87.9362L94.7371 94.6609L95.1574 101.344V114.078H88.6009ZM100.831 100.881C101.924 100.881 102.891 100.629 103.731 100.125C104.6 99.6203 105.286 98.9058 105.791 97.9812C106.323 97.0285 106.589 95.9077 106.589 94.6188C106.589 93.3019 106.323 92.1812 105.791 91.2565C105.286 90.3319 104.6 89.6174 103.731 89.113C102.891 88.6087 101.924 88.3565 100.831 88.3565C99.7386 88.3565 98.7579 88.6087 97.8893 89.113C97.0207 89.6174 96.3342 90.3319 95.8299 91.2565C95.3255 92.1812 95.0733 93.3019 95.0733 94.6188C95.0733 95.9077 95.3255 97.0285 95.8299 97.9812C96.3342 98.9058 97.0207 99.6203 97.8893 100.125C98.7579 100.629 99.7386 100.881 100.831 100.881Z" fill="white"/>
<path d="M128.679 106.429C126.325 106.429 124.07 106.121 121.912 105.504C119.755 104.86 118.017 104.033 116.701 103.025L119.012 97.8971C120.273 98.7937 121.758 99.5362 123.467 100.125C125.204 100.685 126.956 100.965 128.721 100.965C130.066 100.965 131.144 100.839 131.957 100.587C132.798 100.307 133.414 99.9285 133.806 99.4522C134.199 98.9758 134.395 98.4295 134.395 97.813C134.395 97.0285 134.086 96.4121 133.47 95.9638C132.854 95.4874 132.041 95.1092 131.032 94.829C130.024 94.5208 128.903 94.2406 127.67 93.9884C126.465 93.7082 125.246 93.372 124.014 92.9797C122.809 92.5874 121.702 92.0831 120.693 91.4667C119.685 90.8502 118.858 90.0377 118.214 89.029C117.597 88.0203 117.289 86.7314 117.289 85.1623C117.289 83.4812 117.737 81.9541 118.634 80.5812C119.558 79.1802 120.931 78.0734 122.753 77.2609C124.602 76.4203 126.914 76 129.687 76C131.537 76 133.358 76.2242 135.151 76.6725C136.944 77.0928 138.528 77.7372 139.901 78.6058L137.799 83.7754C136.426 82.9908 135.053 82.4164 133.68 82.0522C132.307 81.6599 130.962 81.4638 129.645 81.4638C128.329 81.4638 127.25 81.6179 126.409 81.9261C125.569 82.2343 124.966 82.6406 124.602 83.1449C124.238 83.6213 124.056 84.1816 124.056 84.8261C124.056 85.5826 124.364 86.199 124.98 86.6754C125.597 87.1237 126.409 87.4879 127.418 87.7681C128.427 88.0483 129.533 88.3285 130.738 88.6087C131.971 88.8889 133.19 89.2111 134.395 89.5754C135.628 89.9396 136.748 90.43 137.757 91.0464C138.766 91.6628 139.578 92.4754 140.195 93.4841C140.839 94.4928 141.161 95.7676 141.161 97.3087C141.161 98.9618 140.699 100.475 139.774 101.848C138.85 103.221 137.463 104.327 135.614 105.168C133.792 106.009 131.481 106.429 128.679 106.429Z" fill="white"/>
<path d="M157.504 106.261C154.926 106.261 152.657 105.757 150.695 104.748C148.762 103.739 147.263 102.366 146.198 100.629C145.134 98.8638 144.601 96.8604 144.601 94.6188C144.601 92.3493 145.12 90.3459 146.156 88.6087C147.221 86.8435 148.664 85.4705 150.485 84.4899C152.306 83.4812 154.366 82.9768 156.663 82.9768C158.877 82.9768 160.866 83.4531 162.632 84.4058C164.425 85.3304 165.84 86.6754 166.877 88.4406C167.913 90.1778 168.432 92.2652 168.432 94.7029C168.432 94.9551 168.418 95.2493 168.39 95.5855C168.362 95.8937 168.333 96.1879 168.305 96.4681H149.939V92.6435H164.859L162.337 93.7783C162.337 92.6014 162.099 91.5787 161.623 90.7101C161.147 89.8415 160.488 89.1691 159.648 88.6928C158.807 88.1884 157.826 87.9362 156.706 87.9362C155.585 87.9362 154.59 88.1884 153.721 88.6928C152.881 89.1691 152.222 89.8556 151.746 90.7522C151.27 91.6208 151.032 92.6575 151.032 93.8623V94.871C151.032 96.1039 151.298 97.1966 151.83 98.1493C152.391 99.0739 153.161 99.7884 154.142 100.293C155.15 100.769 156.327 101.007 157.672 101.007C158.877 101.007 159.928 100.825 160.824 100.461C161.749 100.097 162.59 99.5502 163.346 98.8217L166.834 102.604C165.798 103.781 164.495 104.692 162.926 105.336C161.357 105.953 159.549 106.261 157.504 106.261Z" fill="white"/>
<path d="M183.724 106.261C181.287 106.261 179.115 105.771 177.21 104.79C175.304 103.781 173.805 102.394 172.713 100.629C171.648 98.8638 171.116 96.8604 171.116 94.6188C171.116 92.3493 171.648 90.3459 172.713 88.6087C173.805 86.8435 175.304 85.4705 177.21 84.4899C179.115 83.4812 181.287 82.9768 183.724 82.9768C186.106 82.9768 188.179 83.4812 189.945 84.4899C191.71 85.4705 193.013 86.8855 193.853 88.7348L188.768 91.4667C188.179 90.4019 187.437 89.6174 186.54 89.113C185.672 88.6087 184.719 88.3565 183.682 88.3565C182.561 88.3565 181.553 88.6087 180.656 89.113C179.759 89.6174 179.045 90.3319 178.513 91.2565C178.008 92.1812 177.756 93.3019 177.756 94.6188C177.756 95.9358 178.008 97.0565 178.513 97.9812C179.045 98.9058 179.759 99.6203 180.656 100.125C181.553 100.629 182.561 100.881 183.682 100.881C184.719 100.881 185.672 100.643 186.54 100.167C187.437 99.6623 188.179 98.8638 188.768 97.771L193.853 100.545C193.013 102.366 191.71 103.781 189.945 104.79C188.179 105.771 186.106 106.261 183.724 106.261Z" fill="white"/>
<path d="M26.438 155.664V126.243H32.0699L44.5945 147.006H41.6105L53.925 126.243H59.5148L59.5989 155.664H53.2105L53.1685 136.036H54.3453L44.5105 152.554H41.4424L31.3974 136.036H32.8264V155.664H26.438Z" fill="white"/>
<path d="M77.3384 156C74.7606 156 72.4911 155.496 70.5297 154.487C68.5964 153.478 67.0973 152.105 66.0326 150.368C64.9679 148.603 64.4355 146.599 64.4355 144.358C64.4355 142.088 64.9539 140.085 65.9906 138.348C67.0553 136.583 68.4983 135.21 70.3196 134.229C72.1408 133.22 74.2002 132.716 76.4978 132.716C78.7114 132.716 80.7007 133.192 82.466 134.145C84.2592 135.07 85.6742 136.414 86.7109 138.18C87.7476 139.917 88.266 142.004 88.266 144.442C88.266 144.694 88.2519 144.988 88.2239 145.325C88.1959 145.633 88.1679 145.927 88.1399 146.207H69.7732V142.383H84.6935L82.1717 143.517C82.1717 142.341 81.9336 141.318 81.4573 140.449C80.9809 139.581 80.3225 138.908 79.4819 138.432C78.6413 137.927 77.6606 137.675 76.5399 137.675C75.4191 137.675 74.4244 137.927 73.5558 138.432C72.7152 138.908 72.0568 139.595 71.5804 140.491C71.1041 141.36 70.8659 142.397 70.8659 143.601V144.61C70.8659 145.843 71.1321 146.936 71.6645 147.888C72.2249 148.813 72.9954 149.528 73.9761 150.032C74.9848 150.508 76.1616 150.746 77.5065 150.746C78.7114 150.746 79.7621 150.564 80.6587 150.2C81.5833 149.836 82.4239 149.289 83.1804 148.561L86.6689 152.343C85.6321 153.52 84.3292 154.431 82.7602 155.075C81.1911 155.692 79.3838 156 77.3384 156Z" fill="white"/>
<path d="M106.375 132.716C108.168 132.716 109.765 133.08 111.166 133.809C112.595 134.509 113.716 135.602 114.528 137.087C115.341 138.544 115.747 140.421 115.747 142.719V155.664H109.19V143.727C109.19 141.906 108.784 140.561 107.972 139.693C107.187 138.824 106.066 138.39 104.609 138.39C103.573 138.39 102.634 138.614 101.793 139.062C100.981 139.483 100.336 140.141 99.8601 141.038C99.4117 141.934 99.1876 143.083 99.1876 144.484V155.664H92.6311V133.052H98.8934V139.314L97.7166 137.423C98.5291 135.91 99.6919 134.747 101.205 133.935C102.718 133.122 104.441 132.716 106.375 132.716Z" fill="white"/>
<path d="M130.937 156C128.275 156 126.201 155.328 124.716 153.983C123.231 152.61 122.489 150.578 122.489 147.888V128.051H129.045V147.804C129.045 148.757 129.297 149.5 129.802 150.032C130.306 150.536 130.993 150.788 131.861 150.788C132.898 150.788 133.781 150.508 134.509 149.948L136.274 154.571C135.602 155.047 134.789 155.412 133.837 155.664C132.912 155.888 131.945 156 130.937 156ZM119 138.6V133.556H134.677V138.6H119Z" fill="white"/>
<path d="M150.016 156C147.607 156 145.463 155.496 143.586 154.487C141.737 153.478 140.266 152.105 139.173 150.368C138.108 148.603 137.576 146.599 137.576 144.358C137.576 142.088 138.108 140.085 139.173 138.348C140.266 136.583 141.737 135.21 143.586 134.229C145.463 133.22 147.607 132.716 150.016 132.716C152.398 132.716 154.528 133.22 156.405 134.229C158.282 135.21 159.753 136.569 160.818 138.306C161.883 140.043 162.415 142.06 162.415 144.358C162.415 146.599 161.883 148.603 160.818 150.368C159.753 152.105 158.282 153.478 156.405 154.487C154.528 155.496 152.398 156 150.016 156ZM150.016 150.62C151.109 150.62 152.09 150.368 152.958 149.864C153.827 149.359 154.514 148.645 155.018 147.72C155.522 146.768 155.774 145.647 155.774 144.358C155.774 143.041 155.522 141.92 155.018 140.996C154.514 140.071 153.827 139.356 152.958 138.852C152.09 138.348 151.109 138.096 150.016 138.096C148.924 138.096 147.943 138.348 147.074 138.852C146.206 139.356 145.505 140.071 144.973 140.996C144.469 141.92 144.216 143.041 144.216 144.358C144.216 145.647 144.469 146.768 144.973 147.72C145.505 148.645 146.206 149.359 147.074 149.864C147.943 150.368 148.924 150.62 150.016 150.62Z" fill="white"/>
<path d="M166.797 155.664V133.052H173.06V139.441L172.177 137.591C172.85 135.994 173.928 134.789 175.413 133.977C176.898 133.136 178.706 132.716 180.835 132.716V138.768C180.555 138.74 180.303 138.726 180.079 138.726C179.854 138.698 179.616 138.684 179.364 138.684C177.571 138.684 176.114 139.202 174.993 140.239C173.9 141.248 173.354 142.831 173.354 144.988V155.664H166.797Z" fill="white"/>
</svg>
