<svg width="295" height="265" viewBox="0 0 295 265" fill="none" xmlns="http://www.w3.org/2000/svg">
<g clip-path="url(#clip0_1_142)">
<path d="M246.12 66V69C246.12 70.66 247.46 72 249.12 72C250.78 72 252.12 70.66 252.12 69V66H246.12Z" fill="#D5D3DD"/>
<path d="M234.12 66V69C234.12 70.66 235.46 72 237.12 72C238.78 72 240.12 70.66 240.12 69V66H234.12Z" fill="#D5D3DD"/>
<path d="M222.12 66V69C222.12 70.66 223.46 72 225.12 72C226.78 72 228.12 70.66 228.12 69V66H222.12Z" fill="#D5D3DD"/>
<path d="M210.12 66V69C210.12 70.66 211.46 72 213.12 72C214.78 72 216.12 70.66 216.12 69V66H210.12Z" fill="#D5D3DD"/>
<path d="M240.12 86V83C240.12 81.34 241.46 80 243.12 80C244.78 80 246.12 81.34 246.12 83V86H240.12Z" fill="#D5D3DD"/>
<path d="M228.12 86V83C228.12 81.34 229.46 80 231.12 80C232.78 80 234.12 81.34 234.12 83V86H228.12Z" fill="#D5D3DD"/>
<path d="M216.12 86V83C216.12 81.34 217.46 80 219.12 80C220.78 80 222.12 81.34 222.12 83V86H216.12Z" fill="#D5D3DD"/>
<path d="M204.12 86V83C204.12 81.34 205.46 80 207.12 80C208.78 80 210.12 81.34 210.12 83V86H204.12Z" fill="#D5D3DD"/>
<path d="M294.95 192L280.12 177.17V172C280.12 158.08 269.72 146.25 256.12 144.29V140H260.12C275.56 140 288.12 127.44 288.12 112V84C288.12 81.79 286.33 80 284.12 80C281.91 80 280.12 81.79 280.12 84V85C280.12 85.55 279.67 86 279.12 86C278.57 86 278.12 85.55 278.12 85V84C278.12 81.79 276.33 80 274.12 80C271.91 80 270.12 81.79 270.12 84V85C270.12 85.55 269.67 86 269.12 86C268.57 86 268.12 85.55 268.12 85V84C268.12 81.79 266.33 80 264.12 80C261.91 80 260.12 81.79 260.12 84V108C260.12 110.21 258.33 112 256.12 112V84H204.12C199.71 84 196.12 80.41 196.12 76C196.12 71.59 199.71 68 204.12 68H256.12V61.74C259.57 60.85 262.12 57.73 262.12 54C262.12 50.27 259.57 47.15 256.12 46.26V36L250.12 29L244.12 34L238.12 28L232.12 34L226.12 28L220.12 34L214.12 28L208.12 34L202.12 28L196.12 34L190.12 29L184.12 36V46.26C180.67 47.15 178.12 50.27 178.12 54C178.12 57.73 180.67 60.85 184.12 61.74V112C181.91 112 180.12 110.21 180.12 108V84C180.12 81.79 178.33 80 176.12 80C173.91 80 172.12 81.79 172.12 84V85C172.12 85.55 171.67 86 171.12 86C170.57 86 170.12 85.55 170.12 85V84C170.12 81.79 168.33 80 166.12 80C163.91 80 162.12 81.79 162.12 84V85C162.12 85.55 161.67 86 161.12 86C160.57 86 160.12 85.55 160.12 85V84C160.12 81.79 158.33 80 156.12 80C153.91 80 152.12 81.79 152.12 84V112C152.12 127.44 164.68 140 180.12 140H184.12V156C184.12 158.21 182.33 160 180.12 160H164.12V202.83L178.95 188H184.12C195.01 188 204.8 181.76 209.42 172H248.12C250.33 172 252.12 173.79 252.12 176V192H294.95Z" fill="#E2CBB5"/>
<path d="M232.12 8H208.12C192.87 8 184.12 16.75 184.12 32V36L190.12 30L196.12 36L202.12 30L208.12 36L214.12 30L220.12 36L226.12 30L232.12 36L238.12 30L244.12 36L250.12 30L256.12 36V32C256.12 16.75 247.37 8 232.12 8Z" fill="#BF6C35"/>
<path d="M208.12 59C213.091 59 217.12 54.9706 217.12 50C217.12 45.0294 213.091 41 208.12 41C203.149 41 199.12 45.0294 199.12 50C199.12 54.9706 203.149 59 208.12 59Z" fill="white"/>
<path d="M208.12 55C210.881 55 213.12 52.7614 213.12 50C213.12 47.2386 210.881 45 208.12 45C205.359 45 203.12 47.2386 203.12 50C203.12 52.7614 205.359 55 208.12 55Z" fill="#9FA628"/>
<path d="M232.12 59C237.091 59 241.12 54.9706 241.12 50C241.12 45.0294 237.091 41 232.12 41C227.149 41 223.12 45.0294 223.12 50C223.12 54.9706 227.149 59 232.12 59Z" fill="white"/>
<path d="M232.12 55C234.881 55 237.12 52.7614 237.12 50C237.12 47.2386 234.881 45 232.12 45C229.359 45 227.12 47.2386 227.12 50C227.12 52.7614 229.359 55 232.12 55Z" fill="#9FA628"/>
<path d="M92.12 84L88.12 76L84.12 84L88.12 86L92.12 84Z" fill="#D5D3DD"/>
<path d="M80.12 84L76.12 76L72.12 84L76.12 86L80.12 84Z" fill="#D5D3DD"/>
<path d="M68.12 84L64.12 76L60.12 84L64.12 86L68.12 84Z" fill="#D5D3DD"/>
<path d="M56.12 84L52.12 76L48.12 84L52.12 86L56.12 84Z" fill="#D5D3DD"/>
<path d="M44.12 84L40.12 76L36.12 84L40.12 86L44.12 84Z" fill="#D5D3DD"/>
<path d="M86.12 68L82.12 76L78.12 68L82.12 66L86.12 68Z" fill="#D5D3DD"/>
<path d="M74.12 68L70.12 76L66.12 68L70.12 66L74.12 68Z" fill="#D5D3DD"/>
<path d="M62.12 68L58.12 76L54.12 68L58.12 66L62.12 68Z" fill="#D5D3DD"/>
<path d="M50.12 68L46.12 76L42.12 68L46.12 66L50.12 68Z" fill="#D5D3DD"/>
<path d="M24.12 151.4L0 138L24.12 124.6V151.4Z" fill="#E2CBB5"/>
<path d="M24.12 131.4L0 118L24.12 104.6V131.4Z" fill="#E2CBB5"/>
<path d="M24.12 111.4L0 98L24.12 84.6V111.4Z" fill="#E2CBB5"/>
<path d="M24.12 91.4L0 78L24.12 64.6V91.4Z" fill="#E2CBB5"/>
<path d="M40.12 84C35.71 84 32.12 80.41 32.12 76C32.12 71.59 35.71 68 40.12 68H92.12V32C92.12 25.25 90.4 19.78 87.17 15.78L92.46 10.49C94.02 11.46 95.94 12 98.12 12C99.22 12 100.12 11.1 100.12 10C100.12 8.9 99.22 8 98.12 8C94.31 8 92.12 5.81 92.12 2C92.12 0.9 91.22 0 90.12 0C89.02 0 88.12 0.9 88.12 2C88.12 4.18 88.66 6.1 89.63 7.66L84.34 12.95C80.34 9.72 74.87 8 68.12 8H44.12C37.37 8 31.9 9.72 27.9 12.95L22.61 7.66C23.58 6.1 24.12 4.18 24.12 2C24.12 0.9 23.22 0 22.12 0C21.02 0 20.12 0.9 20.12 2C20.12 5.81 17.93 8 14.12 8C13.02 8 12.12 8.9 12.12 10C12.12 11.1 13.02 12 14.12 12C16.3 12 18.22 11.46 19.78 10.49L25.07 15.78C21.84 19.78 20.12 25.25 20.12 32V156C20.12 158.21 18.33 160 16.12 160H0.119995V202.83L14.95 188H20.12C31.01 188 40.8 181.76 45.42 172H84.12C86.33 172 88.12 173.79 88.12 176V192H130.95L116.12 177.17V172C116.12 158.08 105.72 146.25 92.12 144.29V144H143.82L132.24 134.73L146.44 130L132.24 125.27L143.82 116H92.12V112H143.82L132.24 102.73L146.44 98L132.24 93.27L143.82 84H40.12Z" fill="#9FA628"/>
<path d="M44.12 59C49.0906 59 53.12 54.9706 53.12 50C53.12 45.0294 49.0906 41 44.12 41C39.1494 41 35.12 45.0294 35.12 50C35.12 54.9706 39.1494 59 44.12 59Z" fill="white"/>
<path d="M44.12 55C46.8814 55 49.12 52.7614 49.12 50C49.12 47.2386 46.8814 45 44.12 45C41.3586 45 39.12 47.2386 39.12 50C39.12 52.7614 41.3586 55 44.12 55Z" fill="#BF6C35"/>
<path d="M68.12 59C73.0906 59 77.12 54.9706 77.12 50C77.12 45.0294 73.0906 41 68.12 41C63.1494 41 59.12 45.0294 59.12 50C59.12 54.9706 63.1494 59 68.12 59Z" fill="white"/>
<path d="M68.12 55C70.8814 55 73.12 52.7614 73.12 50C73.12 47.2386 70.8814 45 68.12 45C65.3586 45 63.12 47.2386 63.12 50C63.12 52.7614 65.3586 55 68.12 55Z" fill="#BF6C35"/>
<path d="M0.119995 250C0.119995 257.72 6.4 264 14.12 264H22.12V257H14.12C10.81 257 8.12 254.31 8.12 251V239H20.12V232H8.12V223H22.12V216H0.119995V250Z" fill="#663F4C"/>
<path d="M40.12 251C40.12 254.31 37.43 257 34.12 257H32.12V216H24.12V264H34.12C41.84 264 48.12 257.72 48.12 250V216H40.12V251Z" fill="#663F4C"/>
<path d="M50.12 216H58.12V264H50.12V216Z" fill="#663F4C"/>
<path d="M68.12 216H60.12V264H80.12V257H68.12V216Z" fill="#663F4C"/>
<path d="M110.12 221.24C107.58 218.13 104.04 216 100.12 216H90.12V264H98.12V223H100.12C103.43 223 106.12 225.69 106.12 229V264H114.12V229C114.12 225.69 116.81 223 120.12 223H122.12V264H130.12V216H120.12C116.2 216 112.66 218.14 110.12 221.24Z" fill="#663F4C"/>
<path d="M132.12 230V264H140.12V247H148.12V264H156.12V216H146.12C138.4 216 132.12 222.28 132.12 230ZM148.12 240H140.12V229C140.12 225.69 142.81 223 146.12 223H148.12V240Z" fill="#663F4C"/>
<path d="M168.12 216H158.12V264H166.12V247H168.12C171.43 247 174.12 249.69 174.12 253V264H182.12V254C182.12 249.46 179.94 245.77 176.58 243.5C179.94 241.23 182.12 237.54 182.12 233V230C182.12 222.28 175.84 216 168.12 216ZM174.12 234C174.12 237.31 171.43 240 168.12 240H166.12V223H168.12C171.43 223 174.12 225.69 174.12 229V234Z" fill="#663F4C"/>
<path d="M184.12 223H190.12V264H198.12V223H204.12V216H184.12V223Z" fill="#663F4C"/>
<path d="M206.12 216H214.12V264H206.12V216Z" fill="#663F4C"/>
<path d="M216.12 230V264H224.12V248H232.12V264H240.12V216H230.12C222.4 216 216.12 222.28 216.12 230ZM232.12 241H224.12V229C224.12 225.69 226.81 223 230.12 223H232.12V241Z" fill="#663F4C"/>
<path d="M258.12 221.64C255.12 218.16 250.96 216 246.12 216H244.12H242.12V264H250.12V224.65C254.24 226.35 258.12 231.17 258.12 236V238V264H266.12V216H258.12V221.64Z" fill="#663F4C"/>
<path d="M292.12 232V228C292.12 219.04 287.84 215 280.12 215C272.4 215 268.12 220.28 268.12 228C268.12 243 284.12 243.06 284.12 252V253C284.12 256.04 283.12 258 280.12 258C277.08 258 276.12 256.04 276.12 253V248H268.12V252C268.12 261.08 272.4 265 280.12 265C287.84 265 292.12 259.72 292.12 252C292.12 237.06 276.12 237 276.12 228V227C276.12 224 277.08 222 280.12 222C283.12 222 284.12 224 284.12 227V232H292.12Z" fill="#663F4C"/>
</g>
<defs>
<clipPath id="clip0_1_142">
<rect width="295" height="265" fill="white"/>
</clipPath>
</defs>
</svg>
