<svg enable-background="new 0 0 300 300" viewBox="0 0 300 300" xmlns="http://www.w3.org/2000/svg"><path d="m250 82v3c0 1.66 1.34 3 3 3s3-1.34 3-3v-3z" fill="#d5d3dd"/><path d="m238 82v3c0 1.66 1.34 3 3 3s3-1.34 3-3v-3z" fill="#d5d3dd"/><path d="m226 82v3c0 1.66 1.34 3 3 3s3-1.34 3-3v-3z" fill="#d5d3dd"/><path d="m214 82v3c0 1.66 1.34 3 3 3s3-1.34 3-3v-3z" fill="#d5d3dd"/><path d="m244 102v-3c0-1.66 1.34-3 3-3s3 1.34 3 3v3z" fill="#d5d3dd"/><path d="m232 102v-3c0-1.66 1.34-3 3-3s3 1.34 3 3v3z" fill="#d5d3dd"/><path d="m220 102v-3c0-1.66 1.34-3 3-3s3 1.34 3 3v3z" fill="#d5d3dd"/><path d="m208 102v-3c0-1.66 1.34-3 3-3s3 1.34 3 3v3z" fill="#d5d3dd"/><path d="m298.83 208-14.83-14.83v-5.17c0-13.92-10.4-25.75-24-27.71v-4.29h4c15.44 0 28-12.56 28-28v-28c0-2.21-1.79-4-4-4s-4 1.79-4 4v1c0 .55-.45 1-1 1s-1-.45-1-1v-1c0-2.21-1.79-4-4-4s-4 1.79-4 4v1c0 .55-.45 1-1 1s-1-.45-1-1v-1c0-2.21-1.79-4-4-4s-4 1.79-4 4v24c0 2.21-1.79 4-4 4v-28h-52c-4.41 0-8-3.59-8-8s3.59-8 8-8h52v-6.26c3.45-.89 6-4.01 6-7.74s-2.55-6.85-6-7.74v-10.26l-6-7-6 5-6-6-6 6-6-6-6 6-6-6-6 6-6-6-6 6-6-5-6 7v10.26c-3.45.89-6 4.01-6 7.74s2.55 6.85 6 7.74v50.26c-2.21 0-4-1.79-4-4v-24c0-2.21-1.79-4-4-4s-4 1.79-4 4v1c0 .55-.45 1-1 1s-1-.45-1-1v-1c0-2.21-1.79-4-4-4s-4 1.79-4 4v1c0 .55-.45 1-1 1s-1-.45-1-1v-1c0-2.21-1.79-4-4-4s-4 1.79-4 4v28c0 15.44 12.56 28 28 28h4v16c0 2.21-1.79 4-4 4h-16v42.83l14.83-14.83h5.17c10.89 0 20.68-6.24 25.3-16h38.7c2.21 0 4 1.79 4 4v16z" fill="#e2cbb5"/><path d="m236 24h-24c-15.25 0-24 8.75-24 24v4l6-6 6 6 6-6 6 6 6-6 6 6 6-6 6 6 6-6 6 6 6-6 6 6v-4c0-15.25-8.75-24-24-24z" fill="#bf6c35"/><circle cx="212" cy="66" fill="#fff" r="9"/><circle cx="212" cy="66" fill="#9fa628" r="5"/><circle cx="236" cy="66" fill="#fff" r="9"/><circle cx="236" cy="66" fill="#9fa628" r="5"/><path d="m96 100-4-8-4 8 4 2z" fill="#d5d3dd"/><path d="m84 100-4-8-4 8 4 2z" fill="#d5d3dd"/><path d="m72 100-4-8-4 8 4 2z" fill="#d5d3dd"/><path d="m60 100-4-8-4 8 4 2z" fill="#d5d3dd"/><path d="m48 100-4-8-4 8 4 2z" fill="#d5d3dd"/><path d="m90 84-4 8-4-8 4-2z" fill="#d5d3dd"/><path d="m78 84-4 8-4-8 4-2z" fill="#d5d3dd"/><path d="m66 84-4 8-4-8 4-2z" fill="#d5d3dd"/><path d="m54 84-4 8-4-8 4-2z" fill="#d5d3dd"/><path d="m28 167.4-24.12-13.4 24.12-13.4z" fill="#e2cbb5"/><path d="m28 147.4-24.12-13.4 24.12-13.4z" fill="#e2cbb5"/><path d="m28 127.4-24.12-13.4 24.12-13.4z" fill="#e2cbb5"/><path d="m28 107.4-24.12-13.4 24.12-13.4z" fill="#e2cbb5"/><path d="m44 100c-4.41 0-8-3.59-8-8s3.59-8 8-8h52v-36c0-6.75-1.72-12.22-4.95-16.22l5.29-5.29c1.56.97 3.48 1.51 5.66 1.51 1.1 0 2-.9 2-2s-.9-2-2-2c-3.81 0-6-2.19-6-6 0-1.1-.9-2-2-2s-2 .9-2 2c0 2.18.54 4.1 1.51 5.66l-5.29 5.29c-4-3.23-9.47-4.95-16.22-4.95h-24c-6.75 0-12.22 1.72-16.22 4.95l-5.29-5.29c.97-1.56 1.51-3.48 1.51-5.66 0-1.1-.9-2-2-2s-2 .9-2 2c0 3.81-2.19 6-6 6-1.1 0-2 .9-2 2s.9 2 2 2c2.18 0 4.1-.54 5.66-1.51l5.29 5.29c-3.23 4-4.95 9.47-4.95 16.22v124c0 2.21-1.79 4-4 4h-16v42.83l14.83-14.83h5.17c10.89 0 20.68-6.24 25.3-16h38.7c2.21 0 4 1.79 4 4v16h42.83l-14.83-14.83v-5.17c0-13.92-10.4-25.75-24-27.71v-.29h51.7l-11.58-9.27 14.2-4.73-14.2-4.73 11.58-9.27h-51.7v-4h51.7l-11.58-9.27 14.2-4.73-14.2-4.73 11.58-9.27z" fill="#9fa628"/><circle cx="48" cy="66" fill="#fff" r="9"/><circle cx="48" cy="66" fill="#bf6c35" r="5"/><circle cx="72" cy="66" fill="#fff" r="9"/><circle cx="72" cy="66" fill="#bf6c35" r="5"/><g fill="#663f4c"><path d="m4 266c0 7.72 6.28 14 14 14h8v-7h-8c-3.31 0-6-2.69-6-6v-12h12v-7h-12v-9h14v-7h-22z"/><path d="m44 267c0 3.31-2.69 6-6 6h-2v-41h-8v48h10c7.72 0 14-6.28 14-14v-34h-8z"/><path d="m54 232h8v48h-8z"/><path d="m72 232h-8v48h20v-7h-12z"/><path d="m114 237.24c-2.54-3.11-6.08-5.24-10-5.24h-10v48h8v-41h2c3.31 0 6 2.69 6 6v35h8v-35c0-3.31 2.69-6 6-6h2v41h8v-48h-10c-3.92 0-7.46 2.14-10 5.24z"/><path d="m136 246v34h8v-17h8v17h8v-48h-10c-7.72 0-14 6.28-14 14zm16 10h-8v-11c0-3.31 2.69-6 6-6h2z"/><path d="m172 232h-10v48h8v-17h2c3.31 0 6 2.69 6 6v11h8v-10c0-4.54-2.18-8.23-5.54-10.5 3.36-2.27 5.54-5.96 5.54-10.5v-3c0-7.72-6.28-14-14-14zm6 18c0 3.31-2.69 6-6 6h-2v-17h2c3.31 0 6 2.69 6 6z"/><path d="m188 239h6v41h8v-41h6v-7h-20z"/><path d="m210 232h8v48h-8z"/><path d="m220 246v34h8v-16h8v16h8v-48h-10c-7.72 0-14 6.28-14 14zm16 11h-8v-12c0-3.31 2.69-6 6-6h2z"/><path d="m262 237.64c-3-3.48-7.16-5.64-12-5.64h-2-2v48h8v-39.35c4.12 1.7 8 6.52 8 11.35v2 26h8v-48h-8z"/><path d="m296 248v-4c0-8.96-4.28-13-12-13s-12 5.28-12 13c0 15 16 15.06 16 24v1c0 3.04-1 5-4 5-3.04 0-4-1.96-4-5v-5h-8v4c0 9.08 4.28 13 12 13s12-5.28 12-13c0-14.94-16-15-16-24v-1c0-3 .96-5 4-5 3 0 4 2 4 5v5z"/></g></svg>