<svg width="348" height="136" viewBox="0 0 348 136" fill="none" xmlns="http://www.w3.org/2000/svg">
<g clip-path="url(#clip0_1_77)">
<path d="M1 36.5H17.1V42.6C20 38.5 24 35.3 31.5 35.3C36.7 35.3 39.2 36.1 41.3 37.7L35.6 52.8C32.5 51 30.8 50.4 27.5 50.4C21.9 50.4 19 53.5 17.1 57.1V99.4H1V36.5Z" fill="#5448AF"/>
<path d="M100.4 93.2C94.0999 98.5 85.0999 101 76.2999 101C55.9999 101 42.3999 87.8 42.3999 68C42.3999 49.7 54.9999 35 75.6999 35C91.8999 35 105.5 46.6 105.5 64.3C105.5 68.2 105.2 70.6 104.5 73H59.0999C60.4999 82.5 68.0999 87.7 77.9999 87.7C85.6999 87.7 92.0999 84.9 95.7999 82L100.4 93.2ZM58.5999 62.1H89.4999C89.5999 54.4 84.2999 48.4 75.0999 48.4C65.3999 48.4 60.2999 53.8 58.5999 62.1Z" fill="#5448AF"/>
<path d="M116.7 26.3C116.7 8.8 125.1 0 139.1 0C146.7 0 153.5 2.5 156.7 5.9L151.2 18.2C149.1 16.1 145.6 15.1 142 15.1C136.5 15.1 132.8 18.9 132.8 27.6V36.6H149.9V51.6H132.8V99.5H116.7V26.3Z" fill="#5448AF"/>
<path d="M157.3 54.1C157.3 41.8 167.4 34.9 180.4 34.9C192.6 34.9 200.4 39.2 204.3 42.9L198.3 54.4C194.5 51.5 187.9 48.4 181.2 48.4C176.3 48.4 173.4 51.1 173.4 53.9C173.4 64.4 207.4 58.7 207.4 80.9C207.4 93.4 197.3 101.1 181.9 101.1C170.3 101.1 158.5 94.8 155.6 90.3L163.4 79.8C167.2 83.9 176.7 87.6 183 87.6C187.6 87.6 191.3 85.6 191.3 81.7C191.3 71.5 157.3 77.1 157.3 54.1Z" fill="#5448AF"/>
<path d="M272.7 93.2C266.4 98.5 257.4 101 248.6 101C228.3 101 214.7 87.8 214.7 68C214.7 49.7 227.3 35 248 35C264.2 35 277.8 46.6 277.8 64.3C277.8 68.2 277.5 70.6 276.8 73H231.3C232.7 82.5 240.3 87.7 250.2 87.7C257.9 87.7 264.3 84.9 268 82L272.7 93.2ZM230.9 62.1H261.8C261.9 54.4 256.6 48.4 247.4 48.4C237.7 48.4 232.6 53.8 230.9 62.1Z" fill="#5448AF"/>
<path d="M343.2 93.2C336.9 98.5 327.9 101 319.1 101C298.8 101 285.2 87.8 285.2 68C285.2 49.7 297.8 35 318.5 35C334.7 35 348.3 46.6 348.3 64.3C348.3 68.2 348 70.6 347.3 73H301.8C303.2 82.5 310.8 87.7 320.7 87.7C328.4 87.7 334.8 84.9 338.5 82L343.2 93.2ZM301.3 62.1H332.2C332.3 54.4 327 48.4 317.8 48.4C308.2 48.4 303 53.8 301.3 62.1Z" fill="#5448AF"/>
</g>
<defs>
<clipPath id="clip0_1_77">
<rect width="348" height="136" fill="white"/>
</clipPath>
</defs>
</svg>
