<?xml version="1.0" encoding="utf-8"?>
<!-- Generator: Adobe Illustrator 18.0.0, SVG Export Plug-In . SVG Version: 6.00 Build 0)  -->
<!DOCTYPE svg PUBLIC "-//W3C//DTD SVG 1.1//EN" "http://www.w3.org/Graphics/SVG/1.1/DTD/svg11.dtd">
<svg version="1.1" id="Layer_1" xmlns="http://www.w3.org/2000/svg" xmlns:xlink="http://www.w3.org/1999/xlink" x="0px" y="0px"
	 viewBox="0 0 380 160" enable-background="new 0 0 380 160" xml:space="preserve">
<g>
	<path fill="#5448AF" d="M18.8,46.9h16.1V53c2.9-4.1,6.9-7.3,14.4-7.3c5.2,0,7.7,0.8,9.8,2.4l-5.7,15.1c-3.1-1.8-4.8-2.4-8.1-2.4
		c-5.6,0-8.5,3.1-10.4,6.7v42.3H18.8V46.9z"/>
	<path fill="#5448AF" d="M118.2,103.6c-6.3,5.3-15.3,7.8-24.1,7.8c-20.3,0-33.9-13.2-33.9-33c0-18.3,12.6-33,33.3-33
		c16.2,0,29.8,11.6,29.8,29.3c0,3.9-0.3,6.3-1,8.7H76.9c1.4,9.5,9,14.7,18.9,14.7c7.7,0,14.1-2.8,17.8-5.7L118.2,103.6z M76.4,72.5
		h30.9c0.1-7.7-5.2-13.7-14.4-13.7C83.2,58.8,78.1,64.2,76.4,72.5z"/>
	<path fill="#5448AF" d="M134.5,36.7c0-17.5,8.4-26.3,22.4-26.3c7.6,0,14.4,2.5,17.6,5.9l-5.5,12.3c-2.1-2.1-5.6-3.1-9.2-3.1
		c-5.5,0-9.2,3.8-9.2,12.5v9h17.1V62h-17.1v47.9h-16.1V36.7z"/>
	<path fill="#5448AF" d="M175.1,64.5c0-12.3,10.1-19.2,23.1-19.2c12.2,0,20,4.3,23.9,8l-6,11.5c-3.8-2.9-10.4-6-17.1-6
		c-4.9,0-7.8,2.7-7.8,5.5c0,10.5,34,4.8,34,27c0,12.5-10.1,20.2-25.5,20.2c-11.6,0-23.4-6.3-26.3-10.8l7.8-10.5
		c3.8,4.1,13.3,7.8,19.6,7.8c4.6,0,8.3-2,8.3-5.9C209.1,81.9,175.1,87.5,175.1,64.5z"/>
	<path fill="#5448AF" d="M290.5,103.6c-6.3,5.3-15.3,7.8-24.1,7.8c-20.3,0-33.9-13.2-33.9-33c0-18.3,12.6-33,33.3-33
		c16.2,0,29.8,11.6,29.8,29.3c0,3.9-0.3,6.3-1,8.7h-45.5c1.4,9.5,9,14.7,18.9,14.7c7.7,0,14.1-2.8,17.8-5.7L290.5,103.6z
		 M248.7,72.5h30.9c0.1-7.7-5.2-13.7-14.4-13.7C255.5,58.8,250.4,64.2,248.7,72.5z"/>
	<path fill="#5448AF" d="M361,103.6c-6.3,5.3-15.3,7.8-24.1,7.8c-20.3,0-33.9-13.2-33.9-33c0-18.3,12.6-33,33.3-33
		c16.2,0,29.8,11.6,29.8,29.3c0,3.9-0.3,6.3-1,8.7h-45.5c1.4,9.5,9,14.7,18.9,14.7c7.7,0,14.1-2.8,17.8-5.7L361,103.6z M319.1,72.5
		H350c0.1-7.7-5.2-13.7-14.4-13.7C326,58.8,320.8,64.2,319.1,72.5z"/>
</g>
</svg>
